<?xml version="1.0"?>
<svg xmlns="http://www.w3.org/2000/svg" xmlns:xlink="http://www.w3.org/1999/xlink" xmlns:svgjs="http://svgjs.com/svgjs" version="1.1" width="512" height="512" x="0" y="0" viewBox="0 0 512 512" style="enable-background:new 0 0 512 512" xml:space="preserve" class=""><g>
<g xmlns="http://www.w3.org/2000/svg">
	<g>
		<polygon points="333.205,34.213 330.799,0 9.545,22.591 39.863,453.709 68.863,451.669 68.863,79.817 420.93,79.817     420.93,478.34 456.185,482.135 502.455,52.438   " fill="#212931" data-original="#000000" style="" class=""/>
	</g>
</g>
<g xmlns="http://www.w3.org/2000/svg">
	<g>
		<path d="M98.884,109.838V512H390.91V109.838H98.884z M195.09,178.286c18.508,0,33.097,6.755,42.418,18.912l-20.128,17.966    c-5.539-7.025-12.157-11.078-20.668-11.078c-13.239,0-22.154,9.186-22.154,23.64c0,14.454,8.916,23.64,22.154,23.64    c8.511,0,15.13-4.053,20.668-11.078l20.128,17.966c-9.321,12.157-23.911,18.912-42.418,18.912    c-30.395,0-52.684-20.398-52.684-49.442C142.406,198.684,164.696,178.286,195.09,178.286z M342.795,448.571H146.998V418.55    h195.797V448.571z M342.795,395.172H146.998v-30.021h195.797V395.172z M342.795,341.773H146.998v-30.021h195.797V341.773z     M307.756,275.009h-31.341l-39.986-94.562h34.313l22.56,55.251l23.101-55.251h31.339L307.756,275.009z" fill="#212931" data-original="#000000" style="" class=""/>
	</g>
</g>
<g xmlns="http://www.w3.org/2000/svg">
</g>
<g xmlns="http://www.w3.org/2000/svg">
</g>
<g xmlns="http://www.w3.org/2000/svg">
</g>
<g xmlns="http://www.w3.org/2000/svg">
</g>
<g xmlns="http://www.w3.org/2000/svg">
</g>
<g xmlns="http://www.w3.org/2000/svg">
</g>
<g xmlns="http://www.w3.org/2000/svg">
</g>
<g xmlns="http://www.w3.org/2000/svg">
</g>
<g xmlns="http://www.w3.org/2000/svg">
</g>
<g xmlns="http://www.w3.org/2000/svg">
</g>
<g xmlns="http://www.w3.org/2000/svg">
</g>
<g xmlns="http://www.w3.org/2000/svg">
</g>
<g xmlns="http://www.w3.org/2000/svg">
</g>
<g xmlns="http://www.w3.org/2000/svg">
</g>
<g xmlns="http://www.w3.org/2000/svg">
</g>
</g></svg>
